<svg width="124" height="116" viewBox="0 0 124 116" fill="none" xmlns="http://www.w3.org/2000/svg">
<path d="M80.0947 32.6661L61.7044 51.3324L52.0919 41.9992C45.0745 49.8587 28.0693 68.3052 28.0693 63.6129C28.0693 62.6304 28.378 49.6131 28.0693 44.4553L78.6429 0H103.083V50.35L100.421 52.806L80.0947 32.6661Z" fill="url(#paint0_linear_61_28)"/>
<path d="M0 90.742L29.5214 62.4305L52.0254 41.1364L62.1885 50.8155L30.0053 83.4826V90.742H0Z" fill="#F5F5F5"/>
<path d="M82.2727 72.1096L80.3369 70.1738L103.325 49.6056C110.1 43.3142 123.699 30.9733 123.893 30.9733C124.087 30.9733 123.974 61.4626 123.893 76.7072L104.777 95.8235V63.3984H92.4358L82.2727 72.1096Z" fill="#F7F7F7"/>
<path d="M38.2325 115.666L37.9905 75.2553L61.9464 50.5735L82.2726 72.1096L38.2325 115.666Z" fill="url(#paint1_linear_61_28)"/>
<defs>
<linearGradient id="paint0_linear_61_28" x1="65.576" y1="0" x2="65.576" y2="64.3663" gradientUnits="userSpaceOnUse">
<stop stop-color="#939090"/>
<stop offset="1" stop-color="#D9D9D9"/>
</linearGradient>
<linearGradient id="paint1_linear_61_28" x1="60.2525" y1="50.8155" x2="60.2525" y2="115.666" gradientUnits="userSpaceOnUse">
<stop stop-color="#3E7CA2"/>
<stop offset="1" stop-color="#1E313D"/>
</linearGradient>
</defs>
</svg>
