<svg width="140" height="140" viewBox="0 0 140 140" fill="none" xmlns="http://www.w3.org/2000/svg">
<circle cx="70" cy="70" r="70" fill="url(#paint0_linear_59_29)"/>
<path d="M77.7602 44.4511L61.7428 60.7089L53.3706 52.58C47.2587 59.4254 32.4477 75.4917 32.4478 71.4048C32.4478 70.5491 32.7166 59.2115 32.4478 54.7192L76.4957 16H97.782V59.8532L95.4637 61.9924L77.7602 44.4511Z" fill="url(#paint1_linear_59_29)"/>
<path d="M8 95.0334L33.7122 70.375L53.3125 51.8285L62.1642 60.2587L34.1337 88.7107V95.0334H8Z" fill="#F5F5F5"/>
<path d="M79.657 78.8052L77.9709 77.1192L97.9927 59.2049C103.894 53.7253 115.738 42.9767 115.907 42.9767C116.076 42.9767 115.977 69.532 115.907 82.8096L99.2573 99.4593V71.218H88.5087L79.657 78.8052Z" fill="#F7F7F7"/>
<path d="M41.2994 116.741L41.0886 81.545L61.9534 60.0479L79.6569 78.8052L41.2994 116.741Z" fill="url(#paint2_linear_59_29)"/>
<defs>
<linearGradient id="paint0_linear_59_29" x1="140" y1="70.3344" x2="-3.34027e-06" y2="69.6656" gradientUnits="userSpaceOnUse">
<stop stop-color="#619DC2"/>
<stop offset="1" stop-color="#3D5564"/>
</linearGradient>
<linearGradient id="paint1_linear_59_29" x1="65.1149" y1="16" x2="65.1149" y2="72.061" gradientUnits="userSpaceOnUse">
<stop stop-color="#949292"/>
<stop offset="1" stop-color="#D9D9D9"/>
</linearGradient>
<linearGradient id="paint2_linear_59_29" x1="60.4781" y1="60.2587" x2="60.4781" y2="116.741" gradientUnits="userSpaceOnUse">
<stop stop-color="#3E7CA2"/>
<stop offset="1" stop-color="#1E313D"/>
</linearGradient>
</defs>
</svg>
